<mxfile host="app.diagrams.net" modified="2023-03-05T16:16:08.861Z" agent="5.0 (Windows NT 10.0; Win64; x64) AppleWebKit/537.36 (KHTML, like Gecko) Chrome/110.0.0.0 Safari/537.36" etag="hEOjvmuw7QI37Ky5POgm" version="21.0.2" type="github">
  <diagram name="PÃ¡gina-1" id="49ChyUxOX3ig4t__MyXS">
    <mxGraphModel dx="1050" dy="573" grid="1" gridSize="10" guides="1" tooltips="1" connect="1" arrows="1" fold="1" page="1" pageScale="1" pageWidth="827" pageHeight="1169" math="0" shadow="0">
      <root>
        <mxCell id="0" />
        <mxCell id="1" parent="0" />
        <mxCell id="oFJ-YZ0ALQoqBtDVKh8i-1" value="Usuario" style="rounded=0;whiteSpace=wrap;html=1;" parent="1" vertex="1">
          <mxGeometry x="175" y="334" width="160" height="80" as="geometry" />
        </mxCell>
        <mxCell id="oFJ-YZ0ALQoqBtDVKh8i-7" value="&lt;font style=&quot;font-size: 18px;&quot;&gt;MER TELA DE LISTAGEM DE VAGAS&lt;/font&gt;" style="text;html=1;strokeColor=none;fillColor=none;align=center;verticalAlign=middle;whiteSpace=wrap;rounded=0;" parent="1" vertex="1">
          <mxGeometry x="260" y="40" width="346" height="30" as="geometry" />
        </mxCell>
        <mxCell id="oFJ-YZ0ALQoqBtDVKh8i-11" value="" style="ellipse;whiteSpace=wrap;html=1;aspect=fixed;fontSize=18;fillColor=#000000;" parent="1" vertex="1">
          <mxGeometry x="165" y="464" width="20" height="20" as="geometry" />
        </mxCell>
        <mxCell id="oFJ-YZ0ALQoqBtDVKh8i-12" value="" style="ellipse;whiteSpace=wrap;html=1;aspect=fixed;fontSize=18;" parent="1" vertex="1">
          <mxGeometry x="325" y="464" width="20" height="20" as="geometry" />
        </mxCell>
        <mxCell id="oFJ-YZ0ALQoqBtDVKh8i-17" value="" style="endArrow=none;html=1;rounded=0;fontSize=18;exitX=0;exitY=1;exitDx=0;exitDy=0;entryX=0.5;entryY=0;entryDx=0;entryDy=0;" parent="1" source="oFJ-YZ0ALQoqBtDVKh8i-1" target="oFJ-YZ0ALQoqBtDVKh8i-11" edge="1">
          <mxGeometry width="50" height="50" relative="1" as="geometry">
            <mxPoint x="521" y="454" as="sourcePoint" />
            <mxPoint x="571" y="404" as="targetPoint" />
          </mxGeometry>
        </mxCell>
        <mxCell id="oFJ-YZ0ALQoqBtDVKh8i-20" value="" style="endArrow=none;html=1;rounded=0;fontSize=18;exitX=1;exitY=1;exitDx=0;exitDy=0;entryX=0.5;entryY=0;entryDx=0;entryDy=0;" parent="1" source="oFJ-YZ0ALQoqBtDVKh8i-1" target="oFJ-YZ0ALQoqBtDVKh8i-12" edge="1">
          <mxGeometry width="50" height="50" relative="1" as="geometry">
            <mxPoint x="521" y="454" as="sourcePoint" />
            <mxPoint x="571" y="404" as="targetPoint" />
          </mxGeometry>
        </mxCell>
        <mxCell id="oFJ-YZ0ALQoqBtDVKh8i-21" value="" style="ellipse;whiteSpace=wrap;html=1;aspect=fixed;fontSize=18;" parent="1" vertex="1">
          <mxGeometry x="285" y="464" width="20" height="20" as="geometry" />
        </mxCell>
        <mxCell id="oFJ-YZ0ALQoqBtDVKh8i-22" value="" style="endArrow=none;html=1;rounded=0;fontSize=18;exitX=0.5;exitY=0;exitDx=0;exitDy=0;entryX=0.75;entryY=1;entryDx=0;entryDy=0;" parent="1" source="oFJ-YZ0ALQoqBtDVKh8i-21" target="oFJ-YZ0ALQoqBtDVKh8i-1" edge="1">
          <mxGeometry width="50" height="50" relative="1" as="geometry">
            <mxPoint x="521" y="454" as="sourcePoint" />
            <mxPoint x="571" y="404" as="targetPoint" />
          </mxGeometry>
        </mxCell>
        <mxCell id="oFJ-YZ0ALQoqBtDVKh8i-23" value="" style="ellipse;whiteSpace=wrap;html=1;aspect=fixed;fontSize=18;" parent="1" vertex="1">
          <mxGeometry x="245" y="464" width="20" height="20" as="geometry" />
        </mxCell>
        <mxCell id="oFJ-YZ0ALQoqBtDVKh8i-24" value="" style="endArrow=none;html=1;rounded=0;fontSize=18;exitX=0.5;exitY=0;exitDx=0;exitDy=0;entryX=0.5;entryY=1;entryDx=0;entryDy=0;" parent="1" source="oFJ-YZ0ALQoqBtDVKh8i-23" target="oFJ-YZ0ALQoqBtDVKh8i-1" edge="1">
          <mxGeometry width="50" height="50" relative="1" as="geometry">
            <mxPoint x="521" y="454" as="sourcePoint" />
            <mxPoint x="571" y="404" as="targetPoint" />
          </mxGeometry>
        </mxCell>
        <mxCell id="oFJ-YZ0ALQoqBtDVKh8i-25" value="" style="ellipse;whiteSpace=wrap;html=1;aspect=fixed;fontSize=18;" parent="1" vertex="1">
          <mxGeometry x="204" y="464" width="20" height="20" as="geometry" />
        </mxCell>
        <mxCell id="oFJ-YZ0ALQoqBtDVKh8i-26" value="" style="endArrow=none;html=1;rounded=0;fontSize=18;exitX=0.5;exitY=0;exitDx=0;exitDy=0;entryX=0.25;entryY=1;entryDx=0;entryDy=0;" parent="1" source="oFJ-YZ0ALQoqBtDVKh8i-25" target="oFJ-YZ0ALQoqBtDVKh8i-1" edge="1">
          <mxGeometry width="50" height="50" relative="1" as="geometry">
            <mxPoint x="521" y="454" as="sourcePoint" />
            <mxPoint x="571" y="404" as="targetPoint" />
          </mxGeometry>
        </mxCell>
        <mxCell id="oFJ-YZ0ALQoqBtDVKh8i-27" value="ID" style="text;html=1;strokeColor=none;fillColor=none;align=center;verticalAlign=middle;whiteSpace=wrap;rounded=0;fontSize=18;rotation=90;" parent="1" vertex="1">
          <mxGeometry x="145" y="514" width="60" height="30" as="geometry" />
        </mxCell>
        <mxCell id="oFJ-YZ0ALQoqBtDVKh8i-28" value="Nome" style="text;html=1;strokeColor=none;fillColor=none;align=center;verticalAlign=middle;whiteSpace=wrap;rounded=0;fontSize=18;rotation=90;" parent="1" vertex="1">
          <mxGeometry x="184" y="514" width="60" height="30" as="geometry" />
        </mxCell>
        <mxCell id="oFJ-YZ0ALQoqBtDVKh8i-29" value="Endereco" style="text;html=1;strokeColor=none;fillColor=none;align=center;verticalAlign=middle;whiteSpace=wrap;rounded=0;fontSize=18;rotation=90;" parent="1" vertex="1">
          <mxGeometry x="225" y="514" width="60" height="30" as="geometry" />
        </mxCell>
        <mxCell id="oFJ-YZ0ALQoqBtDVKh8i-30" value="Celular" style="text;html=1;strokeColor=none;fillColor=none;align=center;verticalAlign=middle;whiteSpace=wrap;rounded=0;fontSize=18;rotation=90;" parent="1" vertex="1">
          <mxGeometry x="265" y="514" width="60" height="30" as="geometry" />
        </mxCell>
        <mxCell id="oFJ-YZ0ALQoqBtDVKh8i-31" value="Senha" style="text;html=1;strokeColor=none;fillColor=none;align=center;verticalAlign=middle;whiteSpace=wrap;rounded=0;fontSize=18;rotation=90;" parent="1" vertex="1">
          <mxGeometry x="305" y="514" width="60" height="30" as="geometry" />
        </mxCell>
        <mxCell id="oFJ-YZ0ALQoqBtDVKh8i-32" value="Cidade" style="rounded=0;whiteSpace=wrap;html=1;" parent="1" vertex="1">
          <mxGeometry x="223" y="604.5" width="160" height="80" as="geometry" />
        </mxCell>
        <mxCell id="oFJ-YZ0ALQoqBtDVKh8i-33" value="" style="ellipse;whiteSpace=wrap;html=1;aspect=fixed;fontSize=18;fillColor=#000000;" parent="1" vertex="1">
          <mxGeometry x="252" y="734.5" width="20" height="20" as="geometry" />
        </mxCell>
        <mxCell id="oFJ-YZ0ALQoqBtDVKh8i-37" value="" style="ellipse;whiteSpace=wrap;html=1;aspect=fixed;fontSize=18;" parent="1" vertex="1">
          <mxGeometry x="333" y="734.5" width="20" height="20" as="geometry" />
        </mxCell>
        <mxCell id="oFJ-YZ0ALQoqBtDVKh8i-38" value="" style="endArrow=none;html=1;rounded=0;fontSize=18;exitX=0.5;exitY=0;exitDx=0;exitDy=0;entryX=0.75;entryY=1;entryDx=0;entryDy=0;" parent="1" source="oFJ-YZ0ALQoqBtDVKh8i-37" target="oFJ-YZ0ALQoqBtDVKh8i-32" edge="1">
          <mxGeometry width="50" height="50" relative="1" as="geometry">
            <mxPoint x="569" y="724.5" as="sourcePoint" />
            <mxPoint x="619" y="674.5" as="targetPoint" />
          </mxGeometry>
        </mxCell>
        <mxCell id="oFJ-YZ0ALQoqBtDVKh8i-39" value="" style="ellipse;whiteSpace=wrap;html=1;aspect=fixed;fontSize=18;" parent="1" vertex="1">
          <mxGeometry x="293" y="734.5" width="20" height="20" as="geometry" />
        </mxCell>
        <mxCell id="oFJ-YZ0ALQoqBtDVKh8i-40" value="" style="endArrow=none;html=1;rounded=0;fontSize=18;exitX=0.5;exitY=0;exitDx=0;exitDy=0;entryX=0.5;entryY=1;entryDx=0;entryDy=0;" parent="1" source="oFJ-YZ0ALQoqBtDVKh8i-39" target="oFJ-YZ0ALQoqBtDVKh8i-32" edge="1">
          <mxGeometry width="50" height="50" relative="1" as="geometry">
            <mxPoint x="569" y="724.5" as="sourcePoint" />
            <mxPoint x="619" y="674.5" as="targetPoint" />
          </mxGeometry>
        </mxCell>
        <mxCell id="oFJ-YZ0ALQoqBtDVKh8i-42" value="" style="endArrow=none;html=1;rounded=0;fontSize=18;exitX=0.5;exitY=0;exitDx=0;exitDy=0;entryX=0.25;entryY=1;entryDx=0;entryDy=0;" parent="1" source="oFJ-YZ0ALQoqBtDVKh8i-33" target="oFJ-YZ0ALQoqBtDVKh8i-32" edge="1">
          <mxGeometry width="50" height="50" relative="1" as="geometry">
            <mxPoint x="262" y="734.5" as="sourcePoint" />
            <mxPoint x="619" y="674.5" as="targetPoint" />
          </mxGeometry>
        </mxCell>
        <mxCell id="oFJ-YZ0ALQoqBtDVKh8i-44" value="ID" style="text;html=1;strokeColor=none;fillColor=none;align=center;verticalAlign=middle;whiteSpace=wrap;rounded=0;fontSize=18;rotation=90;" parent="1" vertex="1">
          <mxGeometry x="232" y="784.5" width="60" height="30" as="geometry" />
        </mxCell>
        <mxCell id="oFJ-YZ0ALQoqBtDVKh8i-45" value="Nome" style="text;html=1;strokeColor=none;fillColor=none;align=center;verticalAlign=middle;whiteSpace=wrap;rounded=0;fontSize=18;rotation=90;" parent="1" vertex="1">
          <mxGeometry x="273" y="784.5" width="60" height="30" as="geometry" />
        </mxCell>
        <mxCell id="oFJ-YZ0ALQoqBtDVKh8i-46" value="ID_Estado" style="text;html=1;strokeColor=none;fillColor=none;align=center;verticalAlign=middle;whiteSpace=wrap;rounded=0;fontSize=18;rotation=90;" parent="1" vertex="1">
          <mxGeometry x="315" y="795.5" width="60" height="30" as="geometry" />
        </mxCell>
        <mxCell id="oFJ-YZ0ALQoqBtDVKh8i-50" value="" style="ellipse;whiteSpace=wrap;html=1;aspect=fixed;fontSize=18;fillColor=#000000;" parent="1" vertex="1">
          <mxGeometry x="35.5" y="707" width="20" height="20" as="geometry" />
        </mxCell>
        <mxCell id="oFJ-YZ0ALQoqBtDVKh8i-51" value="ID_usuario" style="text;html=1;strokeColor=none;fillColor=none;align=center;verticalAlign=middle;whiteSpace=wrap;rounded=0;fontSize=18;rotation=90;" parent="1" vertex="1">
          <mxGeometry y="765.5" width="91" height="30" as="geometry" />
        </mxCell>
        <mxCell id="oFJ-YZ0ALQoqBtDVKh8i-53" value="" style="ellipse;whiteSpace=wrap;html=1;aspect=fixed;fontSize=18;fillColor=#000000;" parent="1" vertex="1">
          <mxGeometry x="112" y="711" width="17" height="17" as="geometry" />
        </mxCell>
        <mxCell id="oFJ-YZ0ALQoqBtDVKh8i-54" value="ID_cidade" style="text;html=1;strokeColor=none;fillColor=none;align=center;verticalAlign=middle;whiteSpace=wrap;rounded=0;fontSize=18;rotation=90;" parent="1" vertex="1">
          <mxGeometry x="74" y="770" width="91" height="30" as="geometry" />
        </mxCell>
        <mxCell id="oFJ-YZ0ALQoqBtDVKh8i-57" value="" style="ellipse;whiteSpace=wrap;html=1;aspect=fixed;fontSize=18;" parent="1" vertex="1">
          <mxGeometry x="165" y="259" width="20" height="20" as="geometry" />
        </mxCell>
        <mxCell id="oFJ-YZ0ALQoqBtDVKh8i-58" value="" style="ellipse;whiteSpace=wrap;html=1;aspect=fixed;fontSize=18;" parent="1" vertex="1">
          <mxGeometry x="325" y="259" width="20" height="20" as="geometry" />
        </mxCell>
        <mxCell id="oFJ-YZ0ALQoqBtDVKh8i-59" value="" style="ellipse;whiteSpace=wrap;html=1;aspect=fixed;fontSize=18;" parent="1" vertex="1">
          <mxGeometry x="285" y="259" width="20" height="20" as="geometry" />
        </mxCell>
        <mxCell id="oFJ-YZ0ALQoqBtDVKh8i-60" value="" style="ellipse;whiteSpace=wrap;html=1;aspect=fixed;fontSize=18;" parent="1" vertex="1">
          <mxGeometry x="245" y="259" width="20" height="20" as="geometry" />
        </mxCell>
        <mxCell id="oFJ-YZ0ALQoqBtDVKh8i-61" value="" style="ellipse;whiteSpace=wrap;html=1;aspect=fixed;fontSize=18;" parent="1" vertex="1">
          <mxGeometry x="204" y="259" width="20" height="20" as="geometry" />
        </mxCell>
        <mxCell id="oFJ-YZ0ALQoqBtDVKh8i-62" value="" style="endArrow=none;html=1;rounded=0;fontSize=18;entryX=0.5;entryY=1;entryDx=0;entryDy=0;exitX=0;exitY=0;exitDx=0;exitDy=0;" parent="1" source="oFJ-YZ0ALQoqBtDVKh8i-1" target="oFJ-YZ0ALQoqBtDVKh8i-57" edge="1">
          <mxGeometry width="50" height="50" relative="1" as="geometry">
            <mxPoint x="555" y="354" as="sourcePoint" />
            <mxPoint x="605" y="304" as="targetPoint" />
          </mxGeometry>
        </mxCell>
        <mxCell id="oFJ-YZ0ALQoqBtDVKh8i-63" value="" style="endArrow=none;html=1;rounded=0;fontSize=18;entryX=0.5;entryY=1;entryDx=0;entryDy=0;exitX=0.25;exitY=0;exitDx=0;exitDy=0;" parent="1" source="oFJ-YZ0ALQoqBtDVKh8i-1" target="oFJ-YZ0ALQoqBtDVKh8i-61" edge="1">
          <mxGeometry width="50" height="50" relative="1" as="geometry">
            <mxPoint x="555" y="354" as="sourcePoint" />
            <mxPoint x="605" y="304" as="targetPoint" />
          </mxGeometry>
        </mxCell>
        <mxCell id="oFJ-YZ0ALQoqBtDVKh8i-64" value="" style="endArrow=none;html=1;rounded=0;fontSize=18;entryX=0.5;entryY=1;entryDx=0;entryDy=0;exitX=0.5;exitY=0;exitDx=0;exitDy=0;" parent="1" source="oFJ-YZ0ALQoqBtDVKh8i-1" target="oFJ-YZ0ALQoqBtDVKh8i-60" edge="1">
          <mxGeometry width="50" height="50" relative="1" as="geometry">
            <mxPoint x="555" y="354" as="sourcePoint" />
            <mxPoint x="605" y="304" as="targetPoint" />
          </mxGeometry>
        </mxCell>
        <mxCell id="oFJ-YZ0ALQoqBtDVKh8i-65" value="" style="endArrow=none;html=1;rounded=0;fontSize=18;entryX=0.5;entryY=1;entryDx=0;entryDy=0;exitX=0.75;exitY=0;exitDx=0;exitDy=0;" parent="1" source="oFJ-YZ0ALQoqBtDVKh8i-1" target="oFJ-YZ0ALQoqBtDVKh8i-59" edge="1">
          <mxGeometry width="50" height="50" relative="1" as="geometry">
            <mxPoint x="555" y="354" as="sourcePoint" />
            <mxPoint x="605" y="304" as="targetPoint" />
          </mxGeometry>
        </mxCell>
        <mxCell id="oFJ-YZ0ALQoqBtDVKh8i-66" value="" style="endArrow=none;html=1;rounded=0;fontSize=18;entryX=0.5;entryY=1;entryDx=0;entryDy=0;exitX=1;exitY=0;exitDx=0;exitDy=0;" parent="1" source="oFJ-YZ0ALQoqBtDVKh8i-1" target="oFJ-YZ0ALQoqBtDVKh8i-58" edge="1">
          <mxGeometry width="50" height="50" relative="1" as="geometry">
            <mxPoint x="555" y="354" as="sourcePoint" />
            <mxPoint x="605" y="304" as="targetPoint" />
          </mxGeometry>
        </mxCell>
        <mxCell id="oFJ-YZ0ALQoqBtDVKh8i-68" value="idade" style="text;html=1;strokeColor=none;fillColor=none;align=center;verticalAlign=middle;whiteSpace=wrap;rounded=0;fontSize=18;rotation=90;" parent="1" vertex="1">
          <mxGeometry x="138" y="200" width="70" height="30" as="geometry" />
        </mxCell>
        <mxCell id="oFJ-YZ0ALQoqBtDVKh8i-69" value="CPF" style="text;html=1;strokeColor=none;fillColor=none;align=center;verticalAlign=middle;whiteSpace=wrap;rounded=0;fontSize=18;rotation=90;" parent="1" vertex="1">
          <mxGeometry x="182" y="200" width="60" height="30" as="geometry" />
        </mxCell>
        <mxCell id="oFJ-YZ0ALQoqBtDVKh8i-70" value="Email" style="text;html=1;strokeColor=none;fillColor=none;align=center;verticalAlign=middle;whiteSpace=wrap;rounded=0;fontSize=18;rotation=90;" parent="1" vertex="1">
          <mxGeometry x="223" y="200" width="60" height="30" as="geometry" />
        </mxCell>
        <mxCell id="oFJ-YZ0ALQoqBtDVKh8i-71" value="Tipo_usuario" style="text;html=1;strokeColor=none;fillColor=none;align=center;verticalAlign=middle;whiteSpace=wrap;rounded=0;fontSize=18;rotation=90;" parent="1" vertex="1">
          <mxGeometry x="263" y="170" width="60" height="30" as="geometry" />
        </mxCell>
        <mxCell id="oFJ-YZ0ALQoqBtDVKh8i-72" value="CEP" style="text;html=1;strokeColor=none;fillColor=none;align=center;verticalAlign=middle;whiteSpace=wrap;rounded=0;fontSize=18;rotation=90;" parent="1" vertex="1">
          <mxGeometry x="303" y="200" width="60" height="30" as="geometry" />
        </mxCell>
        <mxCell id="LlLtdtgc7xsDMDWSRw3H-1" value="Tipo" style="rounded=0;whiteSpace=wrap;html=1;" parent="1" vertex="1">
          <mxGeometry x="656" y="334" width="160" height="80" as="geometry" />
        </mxCell>
        <mxCell id="LlLtdtgc7xsDMDWSRw3H-4" value="" style="ellipse;whiteSpace=wrap;html=1;aspect=fixed;fontSize=18;fillColor=#000000;" parent="1" vertex="1">
          <mxGeometry x="686" y="463" width="20" height="20" as="geometry" />
        </mxCell>
        <mxCell id="LlLtdtgc7xsDMDWSRw3H-5" value="" style="ellipse;whiteSpace=wrap;html=1;aspect=fixed;fontSize=18;" parent="1" vertex="1">
          <mxGeometry x="766" y="464" width="20" height="20" as="geometry" />
        </mxCell>
        <mxCell id="LlLtdtgc7xsDMDWSRw3H-6" value="ID" style="text;html=1;strokeColor=none;fillColor=none;align=center;verticalAlign=middle;whiteSpace=wrap;rounded=0;fontSize=18;rotation=90;" parent="1" vertex="1">
          <mxGeometry x="666" y="504" width="60" height="30" as="geometry" />
        </mxCell>
        <mxCell id="LlLtdtgc7xsDMDWSRw3H-7" value="Nome" style="text;html=1;strokeColor=none;fillColor=none;align=center;verticalAlign=middle;whiteSpace=wrap;rounded=0;fontSize=18;rotation=90;" parent="1" vertex="1">
          <mxGeometry x="747" y="504" width="60" height="30" as="geometry" />
        </mxCell>
        <mxCell id="LlLtdtgc7xsDMDWSRw3H-10" value="" style="endArrow=none;html=1;rounded=0;exitX=0.5;exitY=0;exitDx=0;exitDy=0;entryX=0.25;entryY=1;entryDx=0;entryDy=0;" parent="1" source="LlLtdtgc7xsDMDWSRw3H-4" target="LlLtdtgc7xsDMDWSRw3H-1" edge="1">
          <mxGeometry width="50" height="50" relative="1" as="geometry">
            <mxPoint x="892" y="514" as="sourcePoint" />
            <mxPoint x="942" y="464" as="targetPoint" />
          </mxGeometry>
        </mxCell>
        <mxCell id="LlLtdtgc7xsDMDWSRw3H-12" value="" style="endArrow=none;html=1;rounded=0;exitX=0.5;exitY=0;exitDx=0;exitDy=0;entryX=0.75;entryY=1;entryDx=0;entryDy=0;" parent="1" source="LlLtdtgc7xsDMDWSRw3H-5" target="LlLtdtgc7xsDMDWSRw3H-1" edge="1">
          <mxGeometry width="50" height="50" relative="1" as="geometry">
            <mxPoint x="747" y="494" as="sourcePoint" />
            <mxPoint x="797" y="444" as="targetPoint" />
          </mxGeometry>
        </mxCell>
        <mxCell id="LlLtdtgc7xsDMDWSRw3H-13" value="Estado" style="rounded=0;whiteSpace=wrap;html=1;" parent="1" vertex="1">
          <mxGeometry x="657" y="604.5" width="160" height="80" as="geometry" />
        </mxCell>
        <mxCell id="LlLtdtgc7xsDMDWSRw3H-14" value="" style="ellipse;whiteSpace=wrap;html=1;aspect=fixed;fontSize=18;fillColor=#000000;" parent="1" vertex="1">
          <mxGeometry x="687" y="733.5" width="20" height="20" as="geometry" />
        </mxCell>
        <mxCell id="LlLtdtgc7xsDMDWSRw3H-15" value="" style="ellipse;whiteSpace=wrap;html=1;aspect=fixed;fontSize=18;" parent="1" vertex="1">
          <mxGeometry x="767" y="734.5" width="20" height="20" as="geometry" />
        </mxCell>
        <mxCell id="LlLtdtgc7xsDMDWSRw3H-16" value="ID" style="text;html=1;strokeColor=none;fillColor=none;align=center;verticalAlign=middle;whiteSpace=wrap;rounded=0;fontSize=18;rotation=90;" parent="1" vertex="1">
          <mxGeometry x="667" y="770" width="60" height="30" as="geometry" />
        </mxCell>
        <mxCell id="LlLtdtgc7xsDMDWSRw3H-17" value="Nome" style="text;html=1;strokeColor=none;fillColor=none;align=center;verticalAlign=middle;whiteSpace=wrap;rounded=0;fontSize=18;rotation=90;" parent="1" vertex="1">
          <mxGeometry x="747" y="770" width="60" height="30" as="geometry" />
        </mxCell>
        <mxCell id="LlLtdtgc7xsDMDWSRw3H-18" value="" style="endArrow=none;html=1;rounded=0;exitX=0.5;exitY=0;exitDx=0;exitDy=0;entryX=0.25;entryY=1;entryDx=0;entryDy=0;" parent="1" source="LlLtdtgc7xsDMDWSRw3H-14" target="LlLtdtgc7xsDMDWSRw3H-13" edge="1">
          <mxGeometry width="50" height="50" relative="1" as="geometry">
            <mxPoint x="893" y="784.5" as="sourcePoint" />
            <mxPoint x="943" y="734.5" as="targetPoint" />
          </mxGeometry>
        </mxCell>
        <mxCell id="LlLtdtgc7xsDMDWSRw3H-19" value="" style="endArrow=none;html=1;rounded=0;exitX=0.5;exitY=0;exitDx=0;exitDy=0;entryX=0.75;entryY=1;entryDx=0;entryDy=0;" parent="1" source="LlLtdtgc7xsDMDWSRw3H-15" target="LlLtdtgc7xsDMDWSRw3H-13" edge="1">
          <mxGeometry width="50" height="50" relative="1" as="geometry">
            <mxPoint x="748" y="764.5" as="sourcePoint" />
            <mxPoint x="798" y="714.5" as="targetPoint" />
          </mxGeometry>
        </mxCell>
        <mxCell id="LlLtdtgc7xsDMDWSRw3H-33" value="Possui" style="rhombus;whiteSpace=wrap;html=1;" parent="1" vertex="1">
          <mxGeometry x="426" y="339" width="150" height="70" as="geometry" />
        </mxCell>
        <mxCell id="LlLtdtgc7xsDMDWSRw3H-37" value="" style="endArrow=none;html=1;rounded=0;exitX=1;exitY=0.5;exitDx=0;exitDy=0;entryX=0;entryY=0.5;entryDx=0;entryDy=0;" parent="1" source="oFJ-YZ0ALQoqBtDVKh8i-1" target="LlLtdtgc7xsDMDWSRw3H-33" edge="1">
          <mxGeometry width="50" height="50" relative="1" as="geometry">
            <mxPoint x="541" y="534" as="sourcePoint" />
            <mxPoint x="591" y="484" as="targetPoint" />
          </mxGeometry>
        </mxCell>
        <mxCell id="LlLtdtgc7xsDMDWSRw3H-38" value="" style="endArrow=none;html=1;rounded=0;exitX=1;exitY=0.5;exitDx=0;exitDy=0;entryX=0;entryY=0.5;entryDx=0;entryDy=0;" parent="1" source="LlLtdtgc7xsDMDWSRw3H-33" target="LlLtdtgc7xsDMDWSRw3H-1" edge="1">
          <mxGeometry width="50" height="50" relative="1" as="geometry">
            <mxPoint x="541" y="534" as="sourcePoint" />
            <mxPoint x="591" y="484" as="targetPoint" />
          </mxGeometry>
        </mxCell>
        <mxCell id="LlLtdtgc7xsDMDWSRw3H-40" value="Possui" style="rhombus;whiteSpace=wrap;html=1;" parent="1" vertex="1">
          <mxGeometry x="444" y="609.5" width="150" height="70" as="geometry" />
        </mxCell>
        <mxCell id="LlLtdtgc7xsDMDWSRw3H-41" value="" style="endArrow=none;html=1;rounded=0;exitX=1;exitY=0.5;exitDx=0;exitDy=0;entryX=0;entryY=0.5;entryDx=0;entryDy=0;" parent="1" source="oFJ-YZ0ALQoqBtDVKh8i-32" target="LlLtdtgc7xsDMDWSRw3H-40" edge="1">
          <mxGeometry width="50" height="50" relative="1" as="geometry">
            <mxPoint x="565" y="584.5" as="sourcePoint" />
            <mxPoint x="615" y="534.5" as="targetPoint" />
          </mxGeometry>
        </mxCell>
        <mxCell id="LlLtdtgc7xsDMDWSRw3H-43" value="" style="endArrow=none;html=1;rounded=0;exitX=1;exitY=0.5;exitDx=0;exitDy=0;entryX=0;entryY=0.5;entryDx=0;entryDy=0;" parent="1" source="LlLtdtgc7xsDMDWSRw3H-40" target="LlLtdtgc7xsDMDWSRw3H-13" edge="1">
          <mxGeometry width="50" height="50" relative="1" as="geometry">
            <mxPoint x="553" y="584.5" as="sourcePoint" />
            <mxPoint x="653" y="644.5" as="targetPoint" />
          </mxGeometry>
        </mxCell>
        <mxCell id="LlLtdtgc7xsDMDWSRw3H-45" value="Cidades_usuarios" style="rhombus;whiteSpace=wrap;html=1;" parent="1" vertex="1">
          <mxGeometry x="8" y="610" width="150" height="70" as="geometry" />
        </mxCell>
        <mxCell id="LlLtdtgc7xsDMDWSRw3H-53" value="" style="endArrow=none;html=1;rounded=0;entryX=0;entryY=0.5;entryDx=0;entryDy=0;exitX=0.5;exitY=0;exitDx=0;exitDy=0;" parent="1" source="LlLtdtgc7xsDMDWSRw3H-45" target="oFJ-YZ0ALQoqBtDVKh8i-1" edge="1">
          <mxGeometry width="50" height="50" relative="1" as="geometry">
            <mxPoint x="342" y="560" as="sourcePoint" />
            <mxPoint x="392" y="510" as="targetPoint" />
            <Array as="points">
              <mxPoint x="82" y="374" />
            </Array>
          </mxGeometry>
        </mxCell>
        <mxCell id="LlLtdtgc7xsDMDWSRw3H-55" value="" style="endArrow=none;html=1;rounded=0;exitX=0.5;exitY=0;exitDx=0;exitDy=0;entryX=0;entryY=1;entryDx=0;entryDy=0;" parent="1" source="oFJ-YZ0ALQoqBtDVKh8i-50" target="LlLtdtgc7xsDMDWSRw3H-45" edge="1">
          <mxGeometry width="50" height="50" relative="1" as="geometry">
            <mxPoint x="342" y="750" as="sourcePoint" />
            <mxPoint x="392" y="700" as="targetPoint" />
          </mxGeometry>
        </mxCell>
        <mxCell id="LlLtdtgc7xsDMDWSRw3H-56" value="" style="endArrow=none;html=1;rounded=0;entryX=1;entryY=1;entryDx=0;entryDy=0;exitX=0.5;exitY=0;exitDx=0;exitDy=0;" parent="1" source="oFJ-YZ0ALQoqBtDVKh8i-53" target="LlLtdtgc7xsDMDWSRw3H-45" edge="1">
          <mxGeometry width="50" height="50" relative="1" as="geometry">
            <mxPoint x="342" y="750" as="sourcePoint" />
            <mxPoint x="392" y="700" as="targetPoint" />
          </mxGeometry>
        </mxCell>
        <mxCell id="LlLtdtgc7xsDMDWSRw3H-57" value="" style="endArrow=none;html=1;rounded=0;exitX=1;exitY=0.5;exitDx=0;exitDy=0;entryX=0;entryY=0.5;entryDx=0;entryDy=0;" parent="1" source="LlLtdtgc7xsDMDWSRw3H-45" target="oFJ-YZ0ALQoqBtDVKh8i-32" edge="1">
          <mxGeometry width="50" height="50" relative="1" as="geometry">
            <mxPoint x="582" y="750" as="sourcePoint" />
            <mxPoint x="632" y="700" as="targetPoint" />
          </mxGeometry>
        </mxCell>
        <mxCell id="LlLtdtgc7xsDMDWSRw3H-58" value="(1, 1)" style="text;html=1;strokeColor=none;fillColor=none;align=center;verticalAlign=middle;whiteSpace=wrap;rounded=0;" parent="1" vertex="1">
          <mxGeometry x="606" y="350" width="60" height="30" as="geometry" />
        </mxCell>
        <mxCell id="LlLtdtgc7xsDMDWSRw3H-59" value="(1, 1)" style="text;html=1;strokeColor=none;fillColor=none;align=center;verticalAlign=middle;whiteSpace=wrap;rounded=0;" parent="1" vertex="1">
          <mxGeometry x="325" y="350" width="60" height="30" as="geometry" />
        </mxCell>
        <mxCell id="LlLtdtgc7xsDMDWSRw3H-60" value="(1, n)" style="text;html=1;strokeColor=none;fillColor=none;align=center;verticalAlign=middle;whiteSpace=wrap;rounded=0;" parent="1" vertex="1">
          <mxGeometry x="125" y="350" width="60" height="30" as="geometry" />
        </mxCell>
        <mxCell id="LlLtdtgc7xsDMDWSRw3H-61" value="(1, n)" style="text;html=1;strokeColor=none;fillColor=none;align=center;verticalAlign=middle;whiteSpace=wrap;rounded=0;" parent="1" vertex="1">
          <mxGeometry x="173" y="620" width="60" height="30" as="geometry" />
        </mxCell>
        <mxCell id="LlLtdtgc7xsDMDWSRw3H-62" value="(1, 1)" style="text;html=1;strokeColor=none;fillColor=none;align=center;verticalAlign=middle;whiteSpace=wrap;rounded=0;" parent="1" vertex="1">
          <mxGeometry x="375" y="620" width="60" height="30" as="geometry" />
        </mxCell>
        <mxCell id="LlLtdtgc7xsDMDWSRw3H-63" value="(1, 1)" style="text;html=1;strokeColor=none;fillColor=none;align=center;verticalAlign=middle;whiteSpace=wrap;rounded=0;" parent="1" vertex="1">
          <mxGeometry x="607" y="620" width="60" height="30" as="geometry" />
        </mxCell>
      </root>
    </mxGraphModel>
  </diagram>
</mxfile>
